<svg width="32" height="32" viewBox="0 0 32 32" fill="none" xmlns="http://www.w3.org/2000/svg">
<g clip-path="url(#clip0_121_484)">
<path d="M10.2182 21.1245C9.6557 23.8953 9.0359 26.1453 8.35882 27.8745C7.68174 29.6037 6.66611 30.9787 5.31195 31.9995C5.16611 30.4162 5.08278 29.1349 5.06195 28.1558C5.04111 27.1766 5.1609 26.0047 5.42132 24.6401C5.68174 23.2756 5.91611 22.1714 6.12445 21.3276C6.33278 20.4839 6.60882 19.4318 6.95257 18.1714C7.29632 16.911 7.55153 15.8537 7.7182 14.9995C7.2182 13.8953 7.02028 12.661 7.12445 11.2964C7.22861 9.9318 7.73903 8.80159 8.6557 7.90576C9.57236 7.00993 10.6244 6.80159 11.8119 7.28076C12.6661 7.61409 13.1349 8.23909 13.2182 9.15576C13.3015 10.0724 13.1609 11.0828 12.7963 12.187C12.4317 13.2912 12.0932 14.3901 11.7807 15.4839C11.4682 16.5776 11.4265 17.536 11.6557 18.3589C11.8849 19.1818 12.5515 19.7078 13.6557 19.937C15.114 20.2287 16.4057 19.8172 17.5307 18.7026C18.6557 17.5881 19.4422 16.1922 19.8901 14.5151C20.338 12.8381 20.4578 11.1037 20.2494 9.31201C20.0411 7.52034 19.4682 6.15576 18.5307 5.21826C17.1974 3.86409 15.5828 3.1193 13.6869 2.98388C11.7911 2.84847 10.0567 3.19743 8.48382 4.03076C6.9109 4.86409 5.63486 6.11409 4.6557 7.78076C3.67653 9.44743 3.33278 11.2599 3.62445 13.2183C3.70778 13.6766 3.94215 14.2287 4.32757 14.8745C4.71299 15.5203 4.93695 16.0203 4.99945 16.3745C5.06195 16.7287 4.88486 17.4474 4.4682 18.5308C1.36403 17.8016 -0.125554 15.3433 -0.000554435 11.1558C0.0827789 8.21826 1.19736 5.72868 3.3432 3.68701C5.48903 1.64534 7.9682 0.457842 10.7807 0.124508C14.2807 -0.271324 17.3744 0.332842 20.0619 1.93701C22.7494 3.54118 24.2807 5.87451 24.6557 8.93701C25.2182 12.687 24.5203 16.062 22.5619 19.062C20.6036 22.062 17.9161 23.437 14.4994 23.187C14.0411 23.1453 13.5984 23.0464 13.1713 22.8901C12.7442 22.7339 12.4213 22.5933 12.2026 22.4683C11.9838 22.3433 11.6505 22.1193 11.2026 21.7964C10.7547 21.4735 10.4265 21.2495 10.2182 21.1245Z" fill="white"/>
</g>
<defs>
<clipPath id="clip0_121_484">
<rect width="32" height="32" fill="white" transform="matrix(1 0 0 -1 0 32)"/>
</clipPath>
</defs>
</svg>
