<svg width="32" height="32" viewBox="0 0 32 32" fill="none" xmlns="http://www.w3.org/2000/svg">
<g clip-path="url(#clip0_121_486)">
<path d="M31.3125 8.28125C31.125 7.59375 30.7865 7.00521 30.2969 6.51563C29.8073 6.02604 29.2188 5.6875 28.5312 5.5C27.4896 5.20833 25.0938 5.01042 21.3438 4.90625C19.4688 4.84375 17.6875 4.8125 16 4.8125L13.3125 4.84375C11.2292 4.86458 9.40625 4.91667 7.84375 5C5.67708 5.125 4.22917 5.29167 3.5 5.5C2.8125 5.6875 2.22396 6.02604 1.73438 6.51563C1.24479 7.00521 0.895833 7.59375 0.6875 8.28125C0.229167 10.8438 0 13.4219 0 16.0156C0 18.6094 0.229167 21.1771 0.6875 23.7188C0.895833 24.4063 1.24479 24.9948 1.73438 25.4844C2.22396 25.974 2.8125 26.3125 3.5 26.5C4.22917 26.7083 5.67708 26.8646 7.84375 26.9688C9.38542 27.0521 11.2083 27.1146 13.3125 27.1563L16 27.1875L18.6875 27.1563C20.7917 27.1146 22.625 27.0521 24.1875 26.9688C26.3542 26.8646 27.8021 26.7083 28.5312 26.5C29.2188 26.3125 29.8073 25.974 30.2969 25.4844C30.7865 24.9948 31.125 24.4063 31.3125 23.7188C31.7917 21.1771 32.0312 18.6094 32.0312 16.0156C32.0312 13.4219 31.7917 10.8438 31.3125 8.28125ZM12.8125 20.8125V11.2188L21.1562 16L12.8125 20.8125Z" fill="white"/>
</g>
<defs>
<clipPath id="clip0_121_486">
<rect width="32" height="32" fill="white" transform="matrix(1 0 0 -1 0 32)"/>
</clipPath>
</defs>
</svg>
