<svg width="42" height="27" viewBox="0 0 42 27" fill="none" xmlns="http://www.w3.org/2000/svg">
<g clip-path="url(#clip0_121_504)">
<g clip-path="url(#clip1_121_504)">
<g clip-path="url(#clip2_121_504)">
<path d="M42 0.375H0V26.625H42V0.375Z" fill="white"/>
<path fill-rule="evenodd" clip-rule="evenodd" d="M21.3167 19.6951C19.8992 20.9551 18.0092 21.6901 16.0142 21.6901C11.4992 21.6901 7.82422 17.9626 7.82422 13.3951C7.82422 8.8276 11.4992 5.1001 16.0142 5.1001C18.0617 5.1001 19.8992 5.8351 21.3167 7.0951C22.7342 5.8351 24.5717 5.1001 26.6192 5.1001C31.1342 5.1001 34.8092 8.8276 34.8092 13.3951C34.8092 17.9626 31.1342 21.6901 26.6192 21.6901C24.5717 21.6901 22.7342 20.9026 21.3167 19.6951Z" fill="#ED0006"/>
<path fill-rule="evenodd" clip-rule="evenodd" d="M21.3164 19.6951C23.1014 18.1726 24.2039 15.9151 24.2039 13.3951C24.2039 10.8751 23.1014 8.6176 21.3164 7.0951C22.7339 5.8351 24.5714 5.1001 26.6189 5.1001C31.1339 5.1001 34.8089 8.8276 34.8089 13.3951C34.8089 17.9626 31.1339 21.6901 26.6189 21.6901C24.5714 21.6901 22.7339 20.9026 21.3164 19.6951Z" fill="#F9A000"/>
<path fill-rule="evenodd" clip-rule="evenodd" d="M21.3133 19.695C23.0983 18.1725 24.2008 15.915 24.2008 13.395C24.2008 10.875 23.0983 8.61747 21.3133 7.09497C19.5283 8.61747 18.4258 10.875 18.4258 13.395C18.4258 15.915 19.5283 18.1725 21.3133 19.695Z" fill="#FF5E00"/>
</g>
</g>
</g>
<rect x="0.5" y="0.5" width="41" height="26" stroke="#EEEEEE"/>
<defs>
<clipPath id="clip0_121_504">
<rect width="42" height="27" fill="white"/>
</clipPath>
<clipPath id="clip1_121_504">
<rect width="42" height="27" fill="white"/>
</clipPath>
<clipPath id="clip2_121_504">
<rect width="42" height="26.25" fill="white" transform="translate(0 0.375)"/>
</clipPath>
</defs>
</svg>
