<svg width="42" height="27" viewBox="0 0 42 27" fill="none" xmlns="http://www.w3.org/2000/svg">
<g clip-path="url(#clip0_121_489)">
<g clip-path="url(#clip1_121_489)">
<g clip-path="url(#clip2_121_489)">
<path d="M42 0.375H0V26.625H42V0.375Z" fill="white"/>
<path fill-rule="evenodd" clip-rule="evenodd" d="M11.8641 17.49H9.97406C9.86906 17.49 9.71156 17.595 9.71156 17.7L8.97656 22.4775C8.97656 22.5825 9.02906 22.635 9.13406 22.635H10.0266C10.1316 22.635 10.2891 22.53 10.2891 22.425L10.4991 21.1125C10.4991 21.0075 10.6041 20.9025 10.7616 20.9025H11.3391C12.5466 20.9025 13.2816 20.325 13.4391 19.1175C13.5441 18.5925 13.4391 18.1725 13.1766 17.91C12.9666 17.6475 12.4941 17.49 11.8641 17.49ZM12.0741 19.275C11.9691 19.9575 11.4441 19.9575 10.9716 19.9575H10.7091L10.9191 18.6975C10.9191 18.645 10.9716 18.54 11.0766 18.54H11.1816C11.4966 18.54 11.8116 18.54 12.0216 18.75C12.1266 18.855 12.1266 19.0125 12.0741 19.275ZM17.4816 19.2225H16.5891C16.5366 19.2225 16.4316 19.275 16.4316 19.38L16.3791 19.6425L16.3266 19.5375C16.1166 19.275 15.6966 19.17 15.2766 19.17C14.2791 19.17 13.4391 19.905 13.2816 20.955C13.1766 21.48 13.3341 22.005 13.5966 22.32C13.8591 22.635 14.2791 22.7925 14.6991 22.7925C15.4866 22.7925 15.9591 22.2675 15.9591 22.2675L15.9066 22.53C15.9066 22.635 15.9591 22.6875 16.0641 22.6875H16.8516C16.9566 22.6875 17.0616 22.5825 17.1141 22.4775L17.5866 19.4325C17.6391 19.3275 17.5341 19.2225 17.4816 19.2225ZM16.2216 20.955C16.1166 21.48 15.7491 21.795 15.2241 21.795C14.9616 21.795 14.7516 21.69 14.6466 21.5325C14.4891 21.375 14.4891 21.165 14.4891 20.9025C14.5941 20.3775 14.9616 20.0625 15.4866 20.0625C15.7491 20.0625 15.9591 20.1675 16.0641 20.325C16.2216 20.4825 16.2741 20.745 16.2216 20.955ZM21.3141 19.2225H22.2066C22.3116 19.2225 22.4166 19.38 22.3116 19.485L19.3191 23.79C19.2666 23.8425 19.2141 23.895 19.1091 23.895H18.2166C18.1116 23.895 18.0066 23.7375 18.1116 23.6325L19.0566 22.32L18.0591 19.4325C18.0066 19.3275 18.1116 19.2225 18.2166 19.2225H19.1091C19.2141 19.2225 19.3191 19.275 19.3716 19.4325L19.8966 21.165L21.1566 19.3275C21.1566 19.275 21.2616 19.2225 21.3141 19.2225Z" fill="#253B80"/>
<path fill-rule="evenodd" clip-rule="evenodd" d="M31.08 22.53L31.8675 17.6475C31.8675 17.595 31.92 17.49 32.025 17.49H32.865C32.97 17.49 33.0225 17.595 33.0225 17.6475L32.2875 22.425C32.2875 22.53 32.1825 22.635 32.025 22.635H31.2375C31.1325 22.6875 31.0275 22.5825 31.08 22.53ZM25.2 17.49H23.31C23.205 17.49 23.1 17.595 23.0475 17.7L22.3125 22.4775C22.3125 22.5825 22.365 22.635 22.47 22.635H23.415C23.52 22.635 23.5725 22.5825 23.5725 22.4775L23.7825 21.1125C23.7825 21.0075 23.8875 20.9025 24.045 20.9025H24.675C25.8825 20.9025 26.6175 20.325 26.775 19.1175C26.88 18.5925 26.775 18.1725 26.5125 17.91C26.3025 17.6475 25.83 17.49 25.2 17.49ZM25.41 19.275C25.305 19.9575 24.78 19.9575 24.3075 19.9575H24.045L24.255 18.6975C24.255 18.645 24.3075 18.54 24.4125 18.54H24.5175C24.8325 18.54 25.1475 18.54 25.3575 18.75C25.41 18.855 25.4625 19.0125 25.41 19.275ZM30.765 19.2225H29.8725C29.82 19.2225 29.715 19.275 29.715 19.38L29.6625 19.6425L29.61 19.5375C29.4 19.275 28.98 19.17 28.56 19.17C27.5625 19.17 26.7225 19.905 26.565 20.955C26.46 21.48 26.6175 22.005 26.88 22.32C27.1425 22.635 27.5625 22.7925 27.9825 22.7925C28.77 22.7925 29.2425 22.2675 29.2425 22.2675L29.19 22.53C29.19 22.635 29.2425 22.6875 29.3475 22.6875H30.135C30.24 22.6875 30.345 22.5825 30.3975 22.4775L30.87 19.4325C30.9225 19.3275 30.87 19.2225 30.765 19.2225ZM29.505 20.955C29.4 21.48 29.0325 21.795 28.5075 21.795C28.245 21.795 28.035 21.69 27.93 21.5325C27.7725 21.375 27.7725 21.165 27.7725 20.9025C27.8775 20.3775 28.245 20.0625 28.77 20.0625C29.0325 20.0625 29.2425 20.1675 29.3475 20.325C29.505 20.4825 29.5575 20.745 29.505 20.955Z" fill="#179BD7"/>
<path d="M18.7964 15.8099L19.0064 14.3399H18.4814H16.0664L17.7464 3.57742C17.7464 3.52492 17.7464 3.52492 17.7989 3.47242C17.7989 3.47242 17.8514 3.41992 17.9039 3.41992H21.9989C23.3639 3.41992 24.3089 3.68242 24.7814 4.25992C24.9914 4.52242 25.1489 4.78492 25.2539 5.09992C25.3064 5.41492 25.3064 5.78242 25.2539 6.25492V6.30742V6.62242L25.4639 6.72742C25.6739 6.83242 25.8314 6.93742 25.9364 7.09492C26.1464 7.30492 26.2514 7.61992 26.3039 7.93492C26.3564 8.30242 26.3564 8.72242 26.2514 9.19492C26.1464 9.71992 25.9889 10.1924 25.7264 10.6124C25.5164 10.9799 25.2539 11.2424 24.9389 11.5049C24.6239 11.7149 24.2564 11.8724 23.8364 11.9774C23.4164 12.0824 22.9964 12.1349 22.4714 12.1349H22.1564C21.9464 12.1349 21.6839 12.2399 21.5264 12.3449C21.3689 12.5024 21.2114 12.7124 21.2114 12.9224V13.0799L20.7914 15.6524V15.7574C20.7914 15.8099 20.7914 15.8099 20.7914 15.8099H20.7389H18.7964Z" fill="#253B80"/>
<path d="M25.7252 6.36011C25.7252 6.41261 25.6727 6.51761 25.6727 6.62261C25.1477 9.40511 23.2577 10.3501 20.8952 10.3501H19.6877C19.3727 10.3501 19.1627 10.5601 19.1102 10.8226L18.4802 14.7601L18.3227 15.8626C18.2702 16.0726 18.4277 16.2301 18.6377 16.2301H20.7902C21.0527 16.2301 21.2627 16.0201 21.3152 15.8101V15.7051L21.7352 13.1326V12.9751C21.7877 12.7126 21.9977 12.5551 22.2602 12.5551H22.5752C24.6752 12.5551 26.2502 11.7151 26.7752 9.30011C26.9852 8.30261 26.8802 7.41011 26.3552 6.83261C26.1452 6.62261 25.9352 6.46511 25.7252 6.36011Z" fill="#179BD7"/>
<path d="M25.1473 6.14993C25.0423 6.14993 24.9898 6.09743 24.8848 6.09743C24.7798 6.09743 24.7273 6.04493 24.6223 6.04493C24.3073 5.99243 23.9398 5.99243 23.5723 5.99243H20.3698C20.2648 5.99243 20.2123 5.99243 20.1598 6.04493C20.0023 6.09743 19.8973 6.25493 19.8973 6.41243L19.2148 10.7699V10.8749C19.2673 10.6124 19.5298 10.4024 19.7923 10.4024H20.9998C23.3623 10.4024 25.2523 9.45743 25.7773 6.67493C25.7773 6.56993 25.8298 6.51743 25.8298 6.41243C25.6723 6.35993 25.5673 6.25493 25.3573 6.20243C25.2523 6.14993 25.1998 6.14993 25.1473 6.14993Z" fill="#222D65"/>
<path d="M19.7936 6.36C19.8461 6.2025 19.9511 6.045 20.0561 5.9925C20.1086 5.94 20.2136 5.94 20.2661 5.94H23.4686C23.8361 5.94 24.2036 5.94 24.5186 5.9925C24.6236 5.9925 24.6761 6.045 24.7811 6.045C24.8861 6.045 24.9386 6.0975 25.0436 6.0975C25.0961 6.0975 25.1486 6.0975 25.1486 6.15C25.3061 6.2025 25.4636 6.255 25.6211 6.36C25.7786 5.31 25.6211 4.6275 25.0436 3.9975C24.4136 3.315 23.3111 3 21.8936 3H17.7986C17.4836 3 17.2736 3.21 17.2211 3.4725L15.4886 14.34C15.4361 14.55 15.6461 14.76 15.8561 14.76H18.3761L19.0061 10.7175L19.7936 6.36Z" fill="#253B80"/>
</g>
</g>
</g>
<rect x="0.5" y="0.5" width="41" height="26" stroke="#EEEEEE"/>
<defs>
<clipPath id="clip0_121_489">
<rect width="42" height="27" fill="white"/>
</clipPath>
<clipPath id="clip1_121_489">
<rect width="42" height="27" fill="white"/>
</clipPath>
<clipPath id="clip2_121_489">
<rect width="42" height="26.25" fill="white" transform="translate(0 0.375)"/>
</clipPath>
</defs>
</svg>
