<svg width="43" height="35" viewBox="0 0 43 35" fill="none" xmlns="http://www.w3.org/2000/svg">
<path d="M38.6506 8.58902L21.4726 19.3253L4.29451 8.58902V4.29451L21.4726 15.0308L38.6506 4.29451V8.58902ZM38.6506 0H4.29451C1.91106 0 0 1.91106 0 4.29451V30.0616C0 31.2005 0.452456 32.2929 1.25783 33.0982C2.06321 33.9036 3.15554 34.3561 4.29451 34.3561H38.6506C39.7896 34.3561 40.8819 33.9036 41.6873 33.0982C42.4926 32.2929 42.9451 31.2005 42.9451 30.0616V4.29451C42.9451 3.15554 42.4926 2.06321 41.6873 1.25783C40.8819 0.452456 39.7896 0 38.6506 0Z" fill="#49365F"/>
</svg>
