<svg width="31" height="25" viewBox="0 0 31 25" fill="none" xmlns="http://www.w3.org/2000/svg">
<path d="M28.2894 6.03096C28.2894 9.5902 27.5313 12.8037 26.0151 15.6714C24.5196 18.4781 22.4322 20.6848 19.7528 22.2916C17.0111 23.9593 13.8851 24.8441 10.3749 24.9458C8.25628 25.1085 6.31424 24.9051 4.54874 24.3356C3.0325 23.8475 1.51625 23.0441 0 21.9255C1.03853 22.0475 2.15494 22.017 3.34925 21.834C4.54355 21.6509 5.64958 21.3459 6.66734 20.9187C7.76817 20.451 8.65092 19.8815 9.31558 19.2103C7.84087 19.2103 6.60502 18.834 5.60804 18.0815C4.71491 17.4104 3.99832 16.4443 3.45829 15.1833H6.2C4.72529 14.6341 3.57253 13.8613 2.74171 12.8647C1.80704 11.7461 1.3397 10.3834 1.3397 8.77666C1.77588 9.00038 2.14975 9.15292 2.46131 9.23428C2.93903 9.37665 3.48945 9.44783 4.11256 9.44783C3.32328 9.00038 2.66382 8.27328 2.13417 7.26653C1.60452 6.25977 1.31893 5.19708 1.27739 4.07847C1.23585 2.87849 1.49548 1.8514 2.05628 0.997185C3.21943 2.27851 4.35142 3.33611 5.45226 4.16999C6.80234 5.20725 8.21474 6.01062 9.68945 6.5801C11.3719 7.25127 13.1997 7.6377 15.1729 7.7394C14.8405 6.43773 14.8821 5.22759 15.2975 4.10897C15.6714 3.09205 16.3152 2.22766 17.2291 1.51582C18.1015 0.844645 19.0985 0.392115 20.2201 0.15822C21.3417 -0.0756721 22.4218 -0.0502491 23.4603 0.234491C24.5819 0.559906 25.5062 1.14972 26.2332 2.00394C26.8978 1.86157 27.5313 1.65819 28.1337 1.39379C28.5075 1.25142 29.0476 0.987015 29.7538 0.600584L30.3457 0.295506C30.1796 1.10905 29.8472 1.80055 29.3487 2.37003C28.9126 2.87849 28.3206 3.3056 27.5729 3.65136C28.2375 3.65136 28.8451 3.57 29.3955 3.4073C29.9459 3.24459 30.4807 2.99036 31 2.6446C30.8546 3.27509 30.4911 3.92593 29.9095 4.5971C29.4111 5.16658 28.871 5.64453 28.2894 6.03096Z" fill="white"/>
</svg>
