<svg width="42" height="27" viewBox="0 0 42 27" fill="none" xmlns="http://www.w3.org/2000/svg">
<g clip-path="url(#clip0_121_511)">
<g clip-path="url(#clip1_121_511)">
<g clip-path="url(#clip2_121_511)">
<path d="M0 0.375H42V26.625H0V0.375Z" fill="white"/>
<path d="M12.9685 5.1001H19.5835C20.5285 5.1001 21.106 5.8351 20.8435 6.7801L17.746 20.0101C17.536 20.9551 16.591 21.6901 15.6985 21.6901H9.13596C8.19096 21.6901 7.61346 20.9551 7.87596 20.0101L10.9735 6.7801C11.131 5.8351 12.076 5.1001 12.9685 5.1001Z" fill="#E21836"/>
<path d="M19.0561 5.1001H26.6686C27.6136 5.1001 27.1936 5.8351 26.9836 6.7801L23.8861 20.0101C23.6761 20.9551 23.7286 21.6901 22.8361 21.6901H15.1711C14.2261 21.6901 13.6486 20.9551 13.9111 20.0101L17.0086 6.7801C17.2186 5.8351 18.1111 5.1001 19.0561 5.1001Z" fill="#00447C"/>
<path d="M26.3552 5.1001H32.9702C33.9152 5.1001 34.4927 5.8351 34.2302 6.7801L31.1327 20.0101C30.9227 20.9551 29.9777 21.6901 29.0852 21.6901H22.5227C21.5777 21.6901 21.0002 20.9551 21.2627 20.0101L24.3602 6.7801C24.5177 5.8351 25.4627 5.1001 26.3552 5.1001Z" fill="#007B84"/>
<path d="M14.6992 9.35255C14.0167 9.35255 13.8067 9.35255 13.7542 9.35255C13.7542 9.45755 13.2817 11.61 13.2817 11.61C13.1767 12.03 13.1242 12.345 12.8617 12.555C12.7042 12.66 12.5467 12.7125 12.3892 12.7125C12.0742 12.7125 11.9167 12.555 11.8642 12.2925V12.1875L11.9692 11.61C11.9692 11.61 12.4417 9.66755 12.5467 9.40505C12.5467 9.40505 12.5467 9.40505 12.5467 9.35255C11.6017 9.35255 11.4442 9.35255 11.4442 9.35255L11.3917 9.51005L10.9192 11.6625L10.8667 11.8725L10.7617 12.45C10.7617 12.6075 10.8142 12.765 10.8667 12.9225C11.0767 13.29 11.7067 13.395 12.0742 13.395C12.5467 13.395 12.9667 13.29 13.2817 13.1325C13.8067 12.8175 13.9117 12.345 14.0692 11.925L14.1217 11.715C14.1217 11.61 14.6467 9.61505 14.6992 9.35255ZM16.4317 10.98C16.3267 10.98 16.1167 11.0325 15.9067 11.085C15.8542 11.1375 15.7492 11.19 15.6967 11.19L15.7492 10.98L15.6967 10.9275C15.2767 11.0325 15.1717 11.0325 14.8042 11.085H14.7517C14.6992 11.4525 14.6467 11.715 14.4892 12.45C14.4367 12.7125 14.3842 12.975 14.2792 13.2375V13.29C14.6992 13.29 14.8042 13.29 15.1192 13.29L15.1717 13.2375C15.2242 13.0275 15.2242 12.975 15.3292 12.5025C15.3817 12.2925 15.4867 11.82 15.5392 11.6625C15.6442 11.61 15.6967 11.5575 15.8017 11.5575C16.0117 11.5575 15.9592 11.715 15.9592 11.7675C15.9592 11.8725 15.9067 12.24 15.8017 12.555L15.7492 12.87C15.6967 13.0275 15.6967 13.185 15.6442 13.29V13.3425C16.0117 13.3425 16.1692 13.3425 16.4842 13.3425L16.5367 13.29C16.5892 12.9225 16.5892 12.87 16.7467 12.345L16.7992 12.135C16.9042 11.6625 16.9567 11.4525 16.8517 11.2425C16.7992 11.0325 16.5892 10.98 16.4317 10.98ZM18.3217 11.4525C18.1117 11.505 18.0067 11.505 17.8492 11.5575C17.7442 11.5575 17.5867 11.61 17.3767 11.61C17.3767 11.7675 17.3242 11.8725 17.3242 12.03C17.3242 12.1875 17.2717 12.345 17.2192 12.6075C17.1667 12.8175 17.1667 12.87 17.1142 12.9225C17.1142 12.975 17.0617 13.08 17.0092 13.2375C17.2192 13.2375 17.3242 13.2375 17.4292 13.2375C17.5342 13.2375 17.6917 13.2375 17.9017 13.2375C17.9542 13.08 17.9542 13.0275 17.9542 12.9225C17.9542 12.8175 18.0067 12.7125 18.0592 12.345C18.1117 12.1875 18.1117 12.03 18.1642 11.8725C18.2167 11.7675 18.2692 11.61 18.3217 11.4525ZM18.3217 10.77C18.1117 10.665 17.7967 10.7175 17.5867 10.8225C17.3767 10.98 17.3242 11.19 17.5342 11.295C17.7442 11.4 18.0592 11.3475 18.2692 11.2425C18.4792 11.1375 18.4792 10.875 18.3217 10.77ZM19.4242 13.3425C19.7917 13.3425 20.2117 13.2375 20.4742 12.9225C20.6842 12.66 20.7892 12.2925 20.8417 12.135C20.9467 11.61 20.8417 11.4 20.7367 11.2425C20.5792 11.0325 20.2642 10.9275 19.9492 10.9275C19.7392 10.9275 19.3192 10.9275 18.9517 11.295C18.6892 11.5575 18.5842 11.8725 18.5317 12.135C18.4792 12.45 18.3742 13.0275 18.8992 13.2375C19.0567 13.3425 19.2667 13.3425 19.4242 13.3425ZM19.4242 12.1875C19.5292 11.82 19.6342 11.4525 19.8967 11.4525C20.1067 11.4525 20.1067 11.715 20.0017 12.0825C20.0017 12.1875 19.8967 12.5025 19.7917 12.6075C19.7392 12.7125 19.6342 12.765 19.5292 12.765C19.4767 12.765 19.3192 12.765 19.3192 12.5025C19.3717 12.45 19.3717 12.345 19.4242 12.1875ZM21.8392 13.29C21.8917 13.0275 21.9442 12.975 21.9967 12.555C22.0492 12.345 22.1542 11.8725 22.2067 11.715C22.3117 11.6625 22.3642 11.61 22.4692 11.61C22.6792 11.61 22.6267 11.7675 22.6267 11.82C22.6267 11.925 22.5742 12.2925 22.4692 12.6075L22.4167 12.8175C22.3642 12.975 22.3642 13.1325 22.3117 13.2375V13.29C22.6792 13.29 22.8367 13.29 23.1517 13.29L23.2042 13.2375C23.2567 12.87 23.2567 12.8175 23.4142 12.2925L23.4667 12.0825C23.5717 11.61 23.6242 11.4 23.5717 11.19C23.4667 10.98 23.3092 10.9275 23.0992 10.9275C22.9942 10.9275 22.7842 10.98 22.5742 11.0325C22.5217 11.085 22.4167 11.1375 22.3642 11.1375L22.4167 10.9275L22.3642 10.875C21.9442 10.98 21.8392 10.98 21.4717 11.0325H21.4192C21.3667 11.4 21.3142 11.6625 21.1567 12.3975C21.1042 12.66 21.0517 12.9225 20.9467 13.185V13.2375C21.3667 13.29 21.4717 13.29 21.8392 13.29ZM24.6742 13.3425C24.6742 13.2375 24.8317 12.5025 24.8317 12.5025C24.8317 12.5025 24.9367 11.9775 24.9892 11.9775L25.0417 11.925H25.0942C25.6192 11.925 26.2492 11.925 26.7217 11.5575C27.0367 11.295 27.2467 10.98 27.3517 10.5075C27.3517 10.4025 27.4042 10.2975 27.4042 10.14C27.4042 9.98255 27.3517 9.82505 27.2992 9.66755C27.0367 9.30005 26.5642 9.30005 25.9867 9.30005H25.7242C24.9892 9.30005 24.7267 9.30005 24.6217 9.30005C24.6217 9.35255 24.5692 9.45755 24.5692 9.45755L24.3067 10.665C24.3067 10.665 23.6767 13.185 23.6767 13.3425C24.3067 13.29 24.5692 13.29 24.6742 13.3425ZM25.1467 11.19L25.4092 9.98255V9.93005V9.87755H25.5142L26.0917 9.93005C26.3017 10.035 26.4067 10.245 26.3542 10.5075C26.3017 10.77 26.1442 10.98 25.8817 11.085C25.7242 11.19 25.4617 11.19 25.2517 11.19H25.0942H25.1467ZM26.8792 12.24C26.8267 12.555 26.7217 13.1325 27.2467 13.29C27.4042 13.3425 27.5617 13.395 27.7192 13.395C27.8767 13.395 28.0342 13.29 28.1392 13.185C28.1392 13.2375 28.1392 13.29 28.0867 13.3425V13.395C28.4542 13.395 28.5592 13.395 28.9792 13.395L29.0317 13.3425C29.0842 12.975 29.1367 12.66 29.2942 11.9775C29.3467 11.6625 29.4517 11.3475 29.5042 11.0325V10.98C29.0842 11.0325 28.9792 11.085 28.5592 11.1375H28.5067C28.5067 11.19 28.5067 11.19 28.5067 11.2425C28.4542 11.1375 28.3492 11.0325 28.1917 10.98C28.0342 10.9275 27.6142 10.98 27.2467 11.3475C27.0367 11.61 26.9317 11.925 26.8792 12.24ZM27.7192 12.24C27.8242 11.8725 27.9292 11.5575 28.1917 11.5575C28.3492 11.5575 28.4542 11.715 28.4542 11.9775C28.4542 12.03 28.4017 12.135 28.4017 12.1875C28.3492 12.2925 28.3492 12.3975 28.2967 12.5025C28.2442 12.555 28.2442 12.66 28.1917 12.7125C28.1392 12.8175 27.9817 12.87 27.8767 12.87C27.8242 12.87 27.6667 12.87 27.6667 12.6075C27.6667 12.5025 27.7192 12.3975 27.7192 12.24ZM32.2867 10.98C31.8667 11.0325 31.7617 11.0325 31.3942 11.085L31.3417 11.1375C31.0792 11.7675 31.0792 11.6625 30.8167 12.135V12.0825L30.7642 10.98L30.7117 10.9275C30.2917 11.0325 30.2917 11.0325 29.8717 11.085L29.8192 11.1375V11.19C29.8717 11.4525 29.8717 11.4 29.9242 11.7675C29.9242 11.9775 29.9767 12.1875 29.9767 12.345C30.0292 12.66 30.0292 12.8175 30.0817 13.3425C29.8192 13.7625 29.7667 13.9725 29.5042 14.34L29.3992 14.655C29.3992 14.7075 29.3467 14.7075 29.3467 14.7075C29.2942 14.7075 29.2942 14.7075 29.2417 14.7075H29.1367L28.9792 15.18H29.5042C29.8192 15.18 29.9767 15.0225 30.0817 14.865L30.3967 14.2875L30.4492 14.235C30.6592 13.815 32.2867 10.98 32.2867 10.98ZM26.8792 17.5425H26.6692L27.4567 14.865H27.7192L27.8242 14.6025V14.9175C27.8242 15.1275 27.9817 15.285 28.3492 15.2325H28.8217L28.9792 14.7075H28.8217C28.7167 14.7075 28.6642 14.7075 28.6642 14.655V14.34H27.8242C27.5617 14.34 26.7217 14.34 26.5642 14.3925C26.3542 14.445 26.1442 14.6025 26.1442 14.6025L26.2492 14.34H25.4617L25.3042 14.865L24.4642 17.595H24.3067L24.1492 18.12H25.7242L25.6717 18.2775H26.4592L26.5117 18.12H26.7217L26.8792 17.5425ZM26.2492 15.39C26.1442 15.4425 25.8817 15.5475 25.8817 15.5475L26.0917 14.865H26.7217L26.5642 15.3375C26.5642 15.39 26.3542 15.39 26.2492 15.39ZM26.2492 16.3875C26.2492 16.3875 26.0392 16.3875 25.9342 16.44C25.8292 16.4925 25.5667 16.5975 25.5667 16.5975L25.7767 15.8625H26.4067L26.2492 16.3875ZM25.8817 17.5425H25.2517L25.4092 16.965H26.0392L25.8817 17.5425ZM27.4042 15.8625H28.2967L28.1917 16.2825H27.2992L27.1417 16.755H27.9292L27.2992 17.595C27.2467 17.7 27.2467 17.7 27.1942 17.7C27.1417 17.7 27.0892 17.7525 27.0367 17.7525H26.8267L26.6692 18.2775H27.2467C27.5617 18.2775 27.7192 18.12 27.8767 17.9625L28.2967 17.385L28.4017 17.9625C28.4017 18.0675 28.5067 18.12 28.5592 18.1725C28.6117 18.225 28.6642 18.2775 28.7692 18.2775C28.8742 18.2775 28.9267 18.2775 28.9792 18.2775H29.2417L29.3992 17.7H29.2942C29.2417 17.7 29.1367 17.7 29.0842 17.6475C29.0842 17.6475 29.0842 17.595 29.0317 17.5425L28.9267 16.965H28.5592L28.7167 16.755H29.6092L29.7667 16.2825H28.9267L29.0317 15.8625H29.8717L30.0292 15.3375H27.5092L27.4042 15.8625ZM19.7917 17.6475L20.0017 16.965H20.8417L20.9992 16.44H20.1592L20.3167 16.02H21.1567L21.3142 15.495H19.2142L19.0567 16.02H19.5292L19.4242 16.44H18.8992L18.7417 16.965H19.2142L18.9517 17.91C18.8992 18.015 18.9517 18.0675 19.0042 18.12C19.0567 18.1725 19.0567 18.225 19.1617 18.225C19.2667 18.225 19.3192 18.2775 19.3717 18.2775H20.3692L20.5267 17.7L20.1067 17.7525C20.0017 17.7525 19.7917 17.7525 19.7917 17.6475ZM19.8967 14.34L19.6867 14.76C19.6342 14.865 19.5817 14.9175 19.5817 14.9175C19.5292 14.9175 19.4767 14.97 19.3717 14.97H19.2667L19.1092 15.495H19.4767C19.6342 15.495 19.7917 15.4425 19.8442 15.39C19.8967 15.3375 19.9492 15.39 20.0017 15.3375L20.1067 15.2325H21.3142L21.4717 14.7075H20.6317L20.7892 14.445H19.8967V14.34ZM21.6292 17.6475C21.6292 17.595 21.6292 17.5425 21.6292 17.4375L21.9442 16.3875H23.0992C23.2567 16.3875 23.3617 16.3875 23.4667 16.3875C23.5717 16.3875 23.6242 16.335 23.7292 16.2825C23.8342 16.23 23.8867 16.1775 23.9392 16.0725C23.9917 16.02 24.0442 15.8625 24.1492 15.6L24.5692 14.235H23.3617C23.3617 14.235 22.9942 14.2875 22.8367 14.34C22.6792 14.3925 22.4167 14.6025 22.4167 14.6025L22.5217 14.235H21.7867L20.7367 17.6475C20.6842 17.805 20.6842 17.8575 20.6842 17.91C20.6842 17.9625 20.7367 18.015 20.7892 18.0675C20.8417 18.12 20.9467 18.12 21.0517 18.12C21.1567 18.12 21.2617 18.12 21.4717 18.12H22.0492L22.2067 17.5425L21.6817 17.595C21.6817 17.7 21.6817 17.7 21.6292 17.6475ZM22.2067 15.705H23.4142L23.3617 15.9675C23.3617 15.9675 23.3092 15.9675 23.2042 15.9675H22.1542L22.2067 15.705ZM22.4167 14.865H23.6242L23.5192 15.18C23.5192 15.18 22.9417 15.18 22.8367 15.18C22.4167 15.2325 22.2067 15.4425 22.2067 15.4425L22.4167 14.865ZM23.3617 16.755C23.3617 16.8075 23.3617 16.8075 23.3092 16.8075C23.3092 16.8075 23.2567 16.8075 23.2042 16.8075H23.0467V16.4925H22.3117L22.2592 17.91C22.2592 18.015 22.2592 18.0675 22.3642 18.12C22.4167 18.1725 22.6792 18.1725 22.9942 18.1725H23.4667L23.6242 17.6475H23.2567H23.1517C23.1517 17.6475 23.0992 17.6475 23.0992 17.595C23.0992 17.595 23.0467 17.595 23.0467 17.49V17.1225H23.4667C23.6767 17.1225 23.7817 17.07 23.8867 16.965C23.9392 16.9125 23.9917 16.8075 23.9917 16.7025L24.0442 16.3875H23.4667L23.3617 16.755Z" fill="#FEFEFE"/>
</g>
</g>
</g>
<rect x="0.5" y="0.5" width="41" height="26" stroke="#EEEEEE"/>
<defs>
<clipPath id="clip0_121_511">
<rect width="42" height="27" fill="white"/>
</clipPath>
<clipPath id="clip1_121_511">
<rect width="42" height="27" fill="white"/>
</clipPath>
<clipPath id="clip2_121_511">
<rect width="42" height="26.25" fill="white" transform="translate(0 0.375)"/>
</clipPath>
</defs>
</svg>
