<svg width="32" height="28" viewBox="0 0 32 28" fill="none" xmlns="http://www.w3.org/2000/svg">
<path d="M0.561135 13.4399L7.91808 16.1916L10.7859 25.4473C10.9107 26.0725 11.6589 26.1977 12.1576 25.8224L16.2726 22.4454C16.6466 22.0701 17.2702 22.0701 17.7689 22.4454L25.1257 27.8236C25.6245 28.199 26.3727 27.9488 26.4975 27.3233L31.984 1.05709C32.1086 0.431709 31.4852 -0.193677 30.8616 0.0564777L0.561135 11.8138C-0.187045 12.0639 -0.187045 13.1897 0.561135 13.4399ZM10.4119 14.8156L24.8764 5.93502C25.1257 5.81005 25.3751 6.18539 25.1257 6.31036L13.28 17.4423C12.9058 17.8175 12.5316 18.3178 12.5316 18.9433L12.1576 21.9451C12.1576 22.3202 11.5341 22.4454 11.4095 21.9451L9.91317 16.4417C9.53898 15.8162 9.78858 15.0658 10.4119 14.8156Z" fill="white"/>
</svg>
