<svg width="42" height="27" viewBox="0 0 42 27" fill="none" xmlns="http://www.w3.org/2000/svg">
<g clip-path="url(#clip0_121_499)">
<g clip-path="url(#clip1_121_499)">
<g clip-path="url(#clip2_121_499)">
<path d="M0 0.375H42V26.625H0V0.375Z" fill="white"/>
<path fill-rule="evenodd" clip-rule="evenodd" d="M12.7584 18.0674H10.2384L8.34844 10.7699C8.24344 10.4549 8.08594 10.1399 7.77094 9.9824C7.08844 9.6149 6.30094 9.3524 5.46094 9.1949V8.9324H9.55594C10.1334 8.9324 10.5534 9.3524 10.6059 9.8249L11.6034 15.0749L14.1234 8.9324H16.5909L12.7584 18.0674ZM17.9559 18.0674H15.5409L17.5359 8.9849H19.9509L17.9559 18.0674ZM23.0484 11.5049C23.1009 11.0324 23.5209 10.7174 24.0459 10.7174C24.8334 10.6649 25.6734 10.7699 26.3559 11.1374L26.7759 9.1949C26.0934 8.9324 25.3059 8.7749 24.5709 8.7749C22.2609 8.7749 20.5284 10.0349 20.5284 11.7674C20.5284 13.0799 21.7359 13.8149 22.5759 14.2349C23.4684 14.6549 23.8359 14.9174 23.7834 15.3374C23.7834 15.9674 23.1009 16.2299 22.3659 16.2299C21.5259 16.2299 20.6859 16.0199 19.8984 15.6524L19.4784 17.5949C20.3184 17.9624 21.2634 18.0674 22.1034 18.0674C24.7284 18.1199 26.3559 16.8599 26.3559 14.9699C26.4084 12.7124 23.0484 12.5549 23.0484 11.5049ZM34.8084 18.0674L32.9184 8.9849H30.8709C30.4509 8.9849 30.0309 9.2474 29.8734 9.6674L26.3559 18.0674H28.8234L29.2959 16.7549H32.3409L32.6034 18.0674H34.8084ZM31.1859 11.4524L31.8684 14.8649H29.9259L31.1859 11.4524Z" fill="#172B85"/>
</g>
</g>
</g>
<rect x="0.5" y="0.5" width="41" height="26" stroke="#EEEEEE"/>
<defs>
<clipPath id="clip0_121_499">
<rect width="42" height="27" fill="white"/>
</clipPath>
<clipPath id="clip1_121_499">
<rect width="42" height="27" fill="white"/>
</clipPath>
<clipPath id="clip2_121_499">
<rect width="42" height="26.25" fill="white" transform="translate(0 0.375)"/>
</clipPath>
</defs>
</svg>
