<svg width="37" height="22" viewBox="0 0 37 22" fill="none" xmlns="http://www.w3.org/2000/svg">
<path d="M36.6564 19.7398C36.6564 19.589 36.509 19.589 36.509 19.4383C35.9202 18.2328 34.5953 16.726 32.8288 15.0686C31.9454 14.315 31.5037 13.7122 31.2094 13.4109C30.7677 12.8082 30.7677 12.3561 30.915 11.7533C31.0622 11.3014 31.6511 10.548 32.6815 9.19164C33.2703 8.43824 33.5649 7.98631 34.0064 7.53419C36.2147 4.52041 37.2451 2.56149 36.9507 1.65745L36.8036 1.5068C36.6564 1.35616 36.509 1.20533 36.2147 1.20533C35.9202 1.05469 35.4787 1.05469 35.037 1.20533H29.4428C29.2956 1.20533 29.2956 1.20533 29.0013 1.20533C28.8539 1.20533 28.7067 1.20533 28.7067 1.20533H28.5596H28.4124L28.265 1.35616C28.1179 1.5068 28.1179 1.5068 28.1179 1.65745C27.529 3.31507 26.7929 4.67123 26.0569 6.17803C25.6152 6.93144 25.1737 7.68484 24.732 8.28759C24.2903 8.89035 23.9959 9.34246 23.7014 9.64375C23.4071 9.94522 23.1125 10.0959 22.9654 10.3972C22.8182 10.548 22.5238 10.6986 22.5238 10.548C22.3765 10.548 22.2293 10.548 22.2293 10.3972C22.0821 10.2465 21.935 10.0959 21.7876 9.94522C21.6405 9.79439 21.6405 9.49311 21.4933 9.19164C21.4933 8.89035 21.4933 8.58906 21.4933 8.43824C21.4933 8.28759 21.4933 7.83548 21.4933 7.53419C21.4933 7.08208 21.4933 6.78079 21.4933 6.63015C21.4933 6.17803 21.4933 5.57528 21.4933 4.97252C21.4933 4.36976 21.4933 3.91765 21.4933 3.61636C21.4933 3.31507 21.4933 2.86296 21.4933 2.56149C21.4933 2.10956 21.4933 1.80809 21.4933 1.65745C21.4933 1.5068 21.3461 1.20533 21.3461 1.05469C21.1989 0.904046 21.0516 0.753401 20.9044 0.602575C20.7572 0.451931 20.4627 0.451932 20.3155 0.301288C19.5795 0.150645 18.6963 0 17.6657 0C15.3102 0 13.691 0.150645 13.1021 0.451933C12.8076 0.602758 12.5132 0.753402 12.366 1.05469C12.0715 1.35616 12.0715 1.5068 12.2189 1.5068C12.9549 1.65745 13.5438 1.95873 13.8381 2.41085L13.9853 2.71232C14.1327 2.86296 14.1325 3.16425 14.2798 3.61636C14.427 4.06848 14.427 4.52041 14.427 5.12316C14.427 6.02739 14.427 6.93144 14.427 7.53419C14.427 8.28759 14.2798 8.73971 14.2798 9.19164C14.2798 9.64375 14.1327 9.94522 13.9853 10.0959C13.8381 10.3972 13.8381 10.548 13.691 10.548C13.691 10.548 13.691 10.6986 13.5438 10.6986C13.3964 10.6986 13.2493 10.8493 12.9549 10.8493C12.8076 10.8493 12.5132 10.6986 12.366 10.548C12.0715 10.3972 11.7772 10.0959 11.63 9.7944C11.3355 9.49311 11.0411 9.04099 10.7466 8.43824C10.4523 7.83548 10.0106 7.2329 9.71621 6.32868L9.42169 5.72592C9.27451 5.42463 8.98017 4.82188 8.68565 4.06847C8.3913 3.31507 8.09677 2.71232 7.80243 1.95892C7.65508 1.65745 7.5079 1.5068 7.36073 1.35616H7.21356C7.21356 1.35616 7.0662 1.20533 6.91903 1.20533C6.77186 1.20533 6.62468 1.05469 6.47751 1.05469H1.17767C0.588871 1.05469 0.294453 1.20533 0.147226 1.35616L0 1.5068C0 1.5068 0 1.65745 0 1.80809C0 1.95892 1.72802e-05 2.10956 0.147226 2.41085C0.883324 4.21912 1.76654 6.02739 2.64994 7.83548C3.53316 9.49311 4.41637 10.9999 5.00524 12.0548C5.74129 13.1096 6.33016 14.1643 7.0662 15.0686C7.80243 15.9726 8.24395 16.5754 8.39112 16.8767C8.68564 17.1781 8.83282 17.3288 8.97999 17.4794L9.42169 17.9315C9.71621 18.2328 10.1577 18.6849 10.7466 19.137C11.3355 19.589 12.0715 20.0411 12.8076 20.4932C13.5438 20.9451 14.427 21.2466 15.3102 21.5479C16.3408 21.8494 17.224 22 18.1074 21.8494H20.3155C20.7572 21.8494 21.0516 21.6987 21.3461 21.3972L21.4933 21.2466C21.4933 21.096 21.6405 21.096 21.6405 20.9451C21.6405 20.7945 21.6405 20.6438 21.6405 20.3426C21.6405 19.7398 21.6405 19.2877 21.7876 18.8356C21.935 18.3836 21.935 18.0822 22.0821 17.7809C22.2293 17.4794 22.3765 17.3288 22.5238 17.1781C22.671 17.0273 22.8182 16.8767 22.8182 16.8767H22.9654C23.2599 16.726 23.7014 16.8767 23.9959 17.1781C24.4376 17.4794 24.8792 17.9315 25.1737 18.3836C25.468 18.8356 25.9097 19.2877 26.4986 19.8904C27.0875 20.4932 27.529 20.9451 27.8235 21.096L28.265 21.3972C28.5596 21.5479 28.8539 21.6987 29.2956 21.8494C29.7373 22 30.0316 22 30.3262 22L35.3315 21.8494C35.773 21.8494 36.2147 21.6987 36.509 21.5479C36.8036 21.3972 36.9507 21.2466 36.9507 20.9451C36.9507 20.7945 36.9507 20.4932 36.9507 20.3426C36.6562 20.0411 36.6564 19.8904 36.6564 19.7398Z" fill="white"/>
</svg>
