<svg width="56" height="56" viewBox="0 0 56 56" fill="none" xmlns="http://www.w3.org/2000/svg">
<rect x="0.5" y="0.5" width="55" height="55" rx="27.5" fill="#49365F" stroke="white"/>
<path d="M39.2253 22.4113H21.2516L19.1911 17.7928C19.0856 17.5564 18.9156 17.356 18.7014 17.2154C18.4871 17.0749 18.2377 17.0001 17.9829 17H14V19.7056H17.1279L23.413 33.7939C23.5185 34.0302 23.6885 34.2306 23.9027 34.3712C24.117 34.5118 24.3664 34.5865 24.6212 34.5866H35.2424C35.7734 34.5866 36.254 34.2646 36.4625 33.7668L40.4454 24.2971C40.5327 24.0914 40.5683 23.8668 40.5491 23.6435C40.5299 23.4202 40.4565 23.2054 40.3354 23.0183C40.2144 22.8311 40.0495 22.6777 39.8557 22.5717C39.6619 22.4657 39.4452 22.4106 39.2253 22.4113Z" fill="white"/>
<path d="M25.2844 39.9979C26.3843 39.9979 27.2759 39.0894 27.2759 37.9687C27.2759 36.848 26.3843 35.9395 25.2844 35.9395C24.1846 35.9395 23.293 36.848 23.293 37.9687C23.293 39.0894 24.1846 39.9979 25.2844 39.9979Z" fill="white"/>
<path d="M34.5774 39.9979C35.6773 39.9979 36.5689 39.0894 36.5689 37.9687C36.5689 36.848 35.6773 35.9395 34.5774 35.9395C33.4775 35.9395 32.5859 36.848 32.5859 37.9687C32.5859 39.0894 33.4775 39.9979 34.5774 39.9979Z" fill="white"/>
</svg>
