<svg width="153" height="122" viewBox="0 0 153 122" fill="none" xmlns="http://www.w3.org/2000/svg">
<path d="M137.7 30.5L76.5 68.625L15.3 30.5V15.25L76.5 53.375L137.7 15.25V30.5ZM137.7 0H15.3C6.8085 0 0 6.78625 0 15.25V106.75C0 110.795 1.61196 114.673 4.48127 117.533C7.35057 120.393 11.2422 122 15.3 122H137.7C141.758 122 145.649 120.393 148.519 117.533C151.388 114.673 153 110.795 153 106.75V15.25C153 11.2054 151.388 7.32655 148.519 4.46662C145.649 1.60669 141.758 0 137.7 0Z" fill="#F9F9F9"/>
</svg>
